<svg width="16" height="14" viewBox="0 0 16 14" fill="none" xmlns="http://www.w3.org/2000/svg">
<path d="M6.92969 9.14648L6.93066 9.14746C7.21781 9.45408 7.6053 9.63281 8.02246 9.63281C8.43944 9.63278 8.82715 9.45272 9.11426 9.14551L9.11523 9.14453L10.0352 8.15332L15.1895 13.5547H0.807617L5.96973 8.11523L6.92969 9.14648ZM15.5996 11.7188L11.1025 7.00488L15.5996 2.16602V11.7188ZM4.90234 6.96777L0.400391 11.7119V2.12695L4.90234 6.96777ZM15.1074 0.400391L8.41504 7.60254L8.12891 7.91016V7.91113L8.10254 7.93359L8.09863 7.9375C8.07048 7.96165 8.04256 7.96875 8.02344 7.96875H8.02051C7.98522 7.96875 7.95494 7.95446 7.93652 7.93457V7.93359L0.928711 0.400391H15.1074Z" stroke="white" stroke-width="0.8"/>
</svg>
