<svg width="25" height="25" viewBox="0 0 25 25" fill="none" xmlns="http://www.w3.org/2000/svg">
<path d="M12.5 0C12.8981 0.000177673 13.2207 0.322561 13.2207 0.720737V11.7793H24.2783C24.6766 11.7793 25 12.1017 25 12.5C24.9998 12.8981 24.6765 13.2207 24.2783 13.2207H13.2207V24.2783C13.2207 24.6765 12.8981 24.9998 12.5 25C12.1017 25 11.7793 24.6766 11.7793 24.2783V13.2207H0.720737C0.322561 13.2207 0.000177673 12.8981 0 12.5C0 12.1017 0.322451 11.7793 0.720737 11.7793H11.7793V0.720737C11.7793 0.322451 12.1017 0 12.5 0Z" fill="#9D9FA2"/>
</svg>
