<svg width="17" height="18" viewBox="0 0 17 18" fill="none" xmlns="http://www.w3.org/2000/svg">
<path d="M3.37693 0.518437C3.41096 0.518437 3.43018 0.525548 3.45389 0.544764C3.51788 0.596838 3.57609 0.664448 3.62805 0.751329L5.49422 4.59303L5.5003 4.60518C5.54783 4.69689 5.56615 4.79943 5.53979 4.93528C5.50945 5.09154 5.44962 5.20484 5.36866 5.29272L4.50696 6.22732C4.45644 6.28221 4.41955 6.34204 4.39153 6.39845L4.33179 6.55033C4.30668 6.63209 4.28222 6.73478 4.28217 6.84499V6.89056L4.29027 6.93511C4.34748 7.26085 4.4716 7.60957 4.6467 7.97705L4.64568 7.97806C4.80213 8.3175 5.03583 8.71396 5.33626 9.16378C5.57227 9.51716 5.87682 9.90304 6.24656 10.3201L6.63741 10.7474C7.0381 11.1914 7.41229 11.569 7.75935 11.8765L8.09957 12.162C8.51921 12.4937 8.88748 12.7513 9.19821 12.9235C9.40959 13.0406 9.61235 13.14 9.79563 13.2029L9.97182 13.2536L10.1915 13.3012L10.2452 13.3133H10.3009C10.4242 13.3133 10.5394 13.2724 10.5915 13.2536H10.5925C10.6798 13.2219 10.8071 13.1633 10.9115 13.05L10.9145 13.047L11.8967 11.9615C12.0138 11.8506 12.1308 11.8067 12.2693 11.8066C12.4061 11.8066 12.4548 11.8333 12.4607 11.837L12.5903 11.921H12.6096L15.864 14.0059V14.0069C16.0059 14.1023 16.0585 14.1944 16.0786 14.2864C16.0906 14.4187 16.0571 14.5168 15.9652 14.6165L13.6292 17.1327L13.6201 17.1429L13.61 17.154C13.5547 17.2205 13.4742 17.2875 13.3558 17.3494V17.3504C13.2289 17.4169 13.1161 17.4524 13.0166 17.4679C12.9865 17.4705 12.9567 17.4726 12.9346 17.475C12.9019 17.4785 12.8457 17.4821 12.7615 17.4821C12.585 17.482 12.2616 17.4469 11.7661 17.3646C11.4388 17.3103 11.0395 17.1932 10.5652 17.0051L10.066 16.7935C9.38576 16.4876 8.59845 16.0202 7.70163 15.384C6.82691 14.7635 5.88176 13.9019 4.86744 12.7888L4.86339 12.7837L4.28622 12.1458C3.7359 11.5161 3.26603 10.9113 2.87571 10.3313C2.34707 9.5457 1.92683 8.82711 1.61202 8.1745C1.2926 7.51238 1.05834 6.92202 0.904227 6.4025C0.744544 5.86417 0.640129 5.41272 0.58628 5.04464C0.529494 4.65648 0.511318 4.38076 0.520462 4.20218C0.528464 4.04591 0.53295 3.92593 0.535651 3.85486C0.55233 3.73407 0.5892 3.6034 0.652097 3.46199C0.713422 3.32416 0.778726 3.23267 0.839423 3.1734L0.849549 3.16429L0.858662 3.15416L3.19568 0.618682C3.27734 0.530081 3.33286 0.518476 3.37693 0.518437Z" stroke="white"/>
</svg>
