<svg width="11" height="17" viewBox="0 0 11 17" fill="none" xmlns="http://www.w3.org/2000/svg">
<path d="M1.97754 2.08008C3.92768 -0.0266627 7.07266 -0.0265983 9.02246 2.08008C9.89379 3.02163 10.4014 4.40971 10.4873 5.86426C10.5731 7.3182 10.2338 8.77704 9.48926 9.84961L9.4834 9.85742L9.47852 9.86523L5.5 16.0732L1.52148 9.86523L1.5166 9.85742L1.51074 9.84961L1.37598 9.64355C0.72565 8.59425 0.432239 7.22721 0.512695 5.86426C0.598639 4.40971 1.10621 3.02163 1.97754 2.08008ZM5.55371 3.42285C4.23908 3.42285 3.23828 4.56233 3.23828 5.88477C3.23841 7.20709 4.23917 8.3457 5.55371 8.3457C6.86818 8.34561 7.86901 7.20704 7.86914 5.88477C7.86914 4.56238 6.86826 3.42294 5.55371 3.42285Z" stroke="white"/>
</svg>
